<?xml version="1.0" encoding="utf-8"?>
<!-- Generator: Adobe Illustrator 18.0.0, SVG Export Plug-In . SVG Version: 6.00 Build 0)  -->
<!DOCTYPE svg PUBLIC "-//W3C//DTD SVG 1.1//EN" "http://www.w3.org/Graphics/SVG/1.1/DTD/svg11.dtd">
<svg version="1.1" id="Layer_1" xmlns="http://www.w3.org/2000/svg" xmlns:xlink="http://www.w3.org/1999/xlink" x="0px" y="0px"
	 viewBox="0 0 64 64" enable-background="new 0 0 64 64" xml:space="preserve">
<g>
	<path fill="#FFFFFF" d="M30.4,27.4c0,0-3.4,0.6-6.2,0.5c-4.4-0.2-7.1-2.1-13.2-0.7c-6.9,1.6-9.2,6.7-9.2,7.4c0,0.1,0.3,0.2,0.6,0.1
		c0.9-0.5,4-1.5,9.7-1.3c5,0.1,8.2,1.5,10.6,2.1c4.7,1.1,7.8,0,7.8,0V27.4z"/>
	<path fill="#FFFFFF" d="M32,22.4c0,0-1.7,1.1-2.9,4.5c-0.8,2.4-0.9,6.9,0,11.2c0.5,2.4,1.1,4,1.7,5.2H32V22.4z"/>
	<path fill="#FFFFFF" d="M33.6,27.4c0,0,3.4,0.6,6.2,0.5c4.4-0.2,7.1-2.1,13.2-0.7c6.9,1.6,9.2,6.7,9.2,7.4c0,0.1-0.3,0.2-0.6,0.1
		c-0.9-0.5-4-1.5-9.7-1.3c-5,0.1-8.2,1.5-10.6,2.1c-4.7,1.1-7.8,0-7.8,0V27.4z"/>
	<path fill="#FFFFFF" d="M32,22.4c0,0,1.7,1.1,2.9,4.5c0.8,2.4,0.9,6.9,0,11.2c-0.5,2.4-1.1,4-1.7,5.2H32V22.4z"/>
</g>
</svg>
